<svg xmlns="http://www.w3.org/2000/svg" viewBox="0 0 64 64" role="img" aria-label="ExamGuard">
  <defs>
    <linearGradient id="g" x1="12" x2="52" y1="10" y2="54" gradientUnits="userSpaceOnUse">
      <stop stop-color="#25d3e6"/>
      <stop offset="0.52" stop-color="#5568ff"/>
      <stop offset="1" stop-color="#101a32"/>
    </linearGradient>
  </defs>
  <rect width="64" height="64" rx="16" fill="#050916"/>
  <path fill="url(#g)" d="M32 7 51 15v15c0 13.3-8.1 22.5-19 27-10.9-4.5-19-13.7-19-27V15l19-8Z"/>
  <path fill="#050916" fill-opacity=".72" d="M32 13.2 46 19v11.3c0 9.3-5.6 16.2-14 19.9-8.4-3.7-14-10.6-14-19.9V19l14-5.8Z"/>
  <path fill="#25d3e6" d="M29.5 38.8 20.9 30l4.1-4 4.6 4.7 10-11.2 4.3 3.8-14.4 15.5Z"/>
</svg>
